# xmcd
#
# Track frame offsets:
#	182
#	34740
#	63280
#	87765
#	112852
#	125262
#	146157
#	154132
#	167877
#	186057
#	205067
#	222617
#	248825
#	268365
#	285125
#	298595
#	310312
#	317757
#
# Disc length: 4560 seconds
#
# Revision: 2
# Processed by: cddbd v1.5.1PL0 Copyright (c) Steve Scherf et al.
# Submitted via: Rip'N'TagIt 1.2.0.0 
#
DISCID=0c11ce12
DTITLE=Various Artist - De Romantische Piano
DYEAR=1900
DGENRE=Classical
TTITLE0=Satie - Gymnopédies (France Clidat
TTITLE1=Beethoven - Adagio Sostenuto Uit Sonate Nr 14
TTITLE2=Field - Nocturne in E majeur Nr 18 (Aldert Vermeulen)
TTITLE3=Chopin - Sostenuto in D Kl. (Hanna Jaszyk)
TTITLE4=Elgar - Salut d'amour Op 12 (Hans Oudenaarden)
TTITLE5=Schubert - Adagio in E majeur, D612 (Jörg Demus
TTITLE6=Cimarosa - Sonate voor Pianoforte - Andantino
TTITLE7=Mozart - Allegro Brillante in C majeur (Cyprien Katsaris)
TTITLE8=Massenet - Meditaion de Thais (Hans Oudenaarden)
TTITLE9=J.S.Bach - Wohltemperierte Klavier Nr 13 BWV 857 - Prelude en Fuga
TTITLE10=Chopin - Etude Nr 3 in E majeur Op 10 (Wolfgang Manz)
TTITLE11=Beethoven - Adagio Cantabile uit Sonate Nr 8
TTITLE12=Bach - Gounod - Ave Maria
TTITLE13=Schubert - Die Forelle (Jorge Bolet)
TTITLE14=Satie - Gnossienne Ne 4 (France Clidat)
TTITLE15=Satie - Gnossienne Ne 5 (France Clidat)
TTITLE16=Satie - Gnossienne Ne 6 (France Clidat)
TTITLE17=Depiano - Field Nocturne in A majeur Nr 4 (Aldert Vermeulen)
EXTD=
EXTT0=
EXTT1=
EXTT2=
EXTT3=
EXTT4=
EXTT5=
EXTT6=
EXTT7=
EXTT8=
EXTT9=
EXTT10=
EXTT11=
EXTT12=
EXTT13=
EXTT14=
EXTT15=
EXTT16=
EXTT17=
PLAYORDER=
